<mxfile host="app.diagrams.net" modified="2021-04-18T23:38:56.207Z" agent="5.0 (Linux; Android 10; SM-A205U) AppleWebKit/537.36 (KHTML, like Gecko) Chrome/89.0.4389.105 Mobile Safari/537.36" etag="qXkILUFC-2TFW0PrZLme" version="14.6.1" type="github">
  <diagram id="C5RBs43oDa-KdzZeNtuy" name="Page-1">
    <mxGraphModel dx="1205" dy="2978" grid="1" gridSize="10" guides="1" tooltips="1" connect="1" arrows="1" fold="1" page="1" pageScale="1" pageWidth="827" pageHeight="1169" math="0" shadow="0">
      <root>
        <mxCell id="WIyWlLk6GJQsqaUBKTNV-0" />
        <mxCell id="WIyWlLk6GJQsqaUBKTNV-1" parent="WIyWlLk6GJQsqaUBKTNV-0" />
        <mxCell id="WIyWlLk6GJQsqaUBKTNV-2" value="" style="rounded=0;html=1;jettySize=auto;orthogonalLoop=1;fontSize=11;endArrow=block;endFill=0;endSize=8;strokeWidth=1;shadow=0;labelBackgroundColor=none;edgeStyle=orthogonalEdgeStyle;" parent="WIyWlLk6GJQsqaUBKTNV-1" source="WIyWlLk6GJQsqaUBKTNV-3" target="WIyWlLk6GJQsqaUBKTNV-6" edge="1">
          <mxGeometry relative="1" as="geometry" />
        </mxCell>
        <mxCell id="WIyWlLk6GJQsqaUBKTNV-3" value="Lamp doesn&#39;t work" style="rounded=1;whiteSpace=wrap;html=1;fontSize=12;glass=0;strokeWidth=1;shadow=0;" parent="WIyWlLk6GJQsqaUBKTNV-1" vertex="1">
          <mxGeometry x="160" y="80" width="120" height="40" as="geometry" />
        </mxCell>
        <mxCell id="WIyWlLk6GJQsqaUBKTNV-4" value="Yes" style="rounded=0;html=1;jettySize=auto;orthogonalLoop=1;fontSize=11;endArrow=block;endFill=0;endSize=8;strokeWidth=1;shadow=0;labelBackgroundColor=none;edgeStyle=orthogonalEdgeStyle;" parent="WIyWlLk6GJQsqaUBKTNV-1" source="WIyWlLk6GJQsqaUBKTNV-6" target="WIyWlLk6GJQsqaUBKTNV-10" edge="1">
          <mxGeometry y="20" relative="1" as="geometry">
            <mxPoint as="offset" />
          </mxGeometry>
        </mxCell>
        <mxCell id="WIyWlLk6GJQsqaUBKTNV-5" value="No" style="edgeStyle=orthogonalEdgeStyle;rounded=0;html=1;jettySize=auto;orthogonalLoop=1;fontSize=11;endArrow=block;endFill=0;endSize=8;strokeWidth=1;shadow=0;labelBackgroundColor=none;" parent="WIyWlLk6GJQsqaUBKTNV-1" source="WIyWlLk6GJQsqaUBKTNV-6" target="WIyWlLk6GJQsqaUBKTNV-7" edge="1">
          <mxGeometry y="10" relative="1" as="geometry">
            <mxPoint as="offset" />
          </mxGeometry>
        </mxCell>
        <mxCell id="WIyWlLk6GJQsqaUBKTNV-6" value="Lamp&lt;br&gt;plugged in?" style="rhombus;whiteSpace=wrap;html=1;shadow=0;fontFamily=Helvetica;fontSize=12;align=center;strokeWidth=1;spacing=6;spacingTop=-4;" parent="WIyWlLk6GJQsqaUBKTNV-1" vertex="1">
          <mxGeometry x="170" y="170" width="100" height="80" as="geometry" />
        </mxCell>
        <mxCell id="WIyWlLk6GJQsqaUBKTNV-7" value="Plug in lamp" style="rounded=1;whiteSpace=wrap;html=1;fontSize=12;glass=0;strokeWidth=1;shadow=0;" parent="WIyWlLk6GJQsqaUBKTNV-1" vertex="1">
          <mxGeometry x="320" y="190" width="120" height="40" as="geometry" />
        </mxCell>
        <mxCell id="WIyWlLk6GJQsqaUBKTNV-8" value="No" style="rounded=0;html=1;jettySize=auto;orthogonalLoop=1;fontSize=11;endArrow=block;endFill=0;endSize=8;strokeWidth=1;shadow=0;labelBackgroundColor=none;edgeStyle=orthogonalEdgeStyle;" parent="WIyWlLk6GJQsqaUBKTNV-1" source="WIyWlLk6GJQsqaUBKTNV-10" target="WIyWlLk6GJQsqaUBKTNV-11" edge="1">
          <mxGeometry x="0.3333" y="20" relative="1" as="geometry">
            <mxPoint as="offset" />
          </mxGeometry>
        </mxCell>
        <mxCell id="WIyWlLk6GJQsqaUBKTNV-9" value="Yes" style="edgeStyle=orthogonalEdgeStyle;rounded=0;html=1;jettySize=auto;orthogonalLoop=1;fontSize=11;endArrow=block;endFill=0;endSize=8;strokeWidth=1;shadow=0;labelBackgroundColor=none;" parent="WIyWlLk6GJQsqaUBKTNV-1" source="WIyWlLk6GJQsqaUBKTNV-10" target="WIyWlLk6GJQsqaUBKTNV-12" edge="1">
          <mxGeometry y="10" relative="1" as="geometry">
            <mxPoint as="offset" />
          </mxGeometry>
        </mxCell>
        <mxCell id="WIyWlLk6GJQsqaUBKTNV-10" value="Bulb&lt;br&gt;burned out?" style="rhombus;whiteSpace=wrap;html=1;shadow=0;fontFamily=Helvetica;fontSize=12;align=center;strokeWidth=1;spacing=6;spacingTop=-4;" parent="WIyWlLk6GJQsqaUBKTNV-1" vertex="1">
          <mxGeometry x="170" y="290" width="100" height="80" as="geometry" />
        </mxCell>
        <mxCell id="WIyWlLk6GJQsqaUBKTNV-11" value="Repair Lamp" style="rounded=1;whiteSpace=wrap;html=1;fontSize=12;glass=0;strokeWidth=1;shadow=0;" parent="WIyWlLk6GJQsqaUBKTNV-1" vertex="1">
          <mxGeometry x="160" y="430" width="120" height="40" as="geometry" />
        </mxCell>
        <mxCell id="WIyWlLk6GJQsqaUBKTNV-12" value="Replace Bulb" style="rounded=1;whiteSpace=wrap;html=1;fontSize=12;glass=0;strokeWidth=1;shadow=0;" parent="WIyWlLk6GJQsqaUBKTNV-1" vertex="1">
          <mxGeometry x="320" y="310" width="120" height="40" as="geometry" />
        </mxCell>
        <mxCell id="CG-r57F87EL2DfwsQt_h-0" value="Start" style="ellipse" vertex="1" parent="WIyWlLk6GJQsqaUBKTNV-1">
          <mxGeometry x="-650" y="-390" width="80" height="30" as="geometry" />
        </mxCell>
        <mxCell id="CG-r57F87EL2DfwsQt_h-1" value="Entry" style="rounded=1;" vertex="1" parent="WIyWlLk6GJQsqaUBKTNV-1">
          <mxGeometry x="-470" y="-390" width="80" height="30" as="geometry" />
        </mxCell>
        <mxCell id="CG-r57F87EL2DfwsQt_h-2" value="" style="curved=1;noEdgeStyle=1;orthogonal=1;" edge="1" source="CG-r57F87EL2DfwsQt_h-0" target="CG-r57F87EL2DfwsQt_h-1" parent="WIyWlLk6GJQsqaUBKTNV-1">
          <mxGeometry relative="1" as="geometry">
            <Array as="points">
              <mxPoint x="-558" y="-375" />
              <mxPoint x="-482" y="-375" />
            </Array>
          </mxGeometry>
        </mxCell>
        <mxCell id="CG-r57F87EL2DfwsQt_h-3" value="Entry" style="rounded=1;" vertex="1" parent="WIyWlLk6GJQsqaUBKTNV-1">
          <mxGeometry x="-290" y="-420" width="80" height="30" as="geometry" />
        </mxCell>
        <mxCell id="CG-r57F87EL2DfwsQt_h-4" value="" style="curved=1;noEdgeStyle=1;orthogonal=1;" edge="1" source="CG-r57F87EL2DfwsQt_h-1" target="CG-r57F87EL2DfwsQt_h-3" parent="WIyWlLk6GJQsqaUBKTNV-1">
          <mxGeometry relative="1" as="geometry">
            <Array as="points">
              <mxPoint x="-378" y="-380" />
              <mxPoint x="-302" y="-405" />
            </Array>
          </mxGeometry>
        </mxCell>
        <mxCell id="CG-r57F87EL2DfwsQt_h-5" value="Entry" style="rounded=1;" vertex="1" parent="WIyWlLk6GJQsqaUBKTNV-1">
          <mxGeometry x="-290" y="-360" width="80" height="30" as="geometry" />
        </mxCell>
        <mxCell id="CG-r57F87EL2DfwsQt_h-6" value="" style="curved=1;noEdgeStyle=1;orthogonal=1;" edge="1" source="CG-r57F87EL2DfwsQt_h-1" target="CG-r57F87EL2DfwsQt_h-5" parent="WIyWlLk6GJQsqaUBKTNV-1">
          <mxGeometry relative="1" as="geometry">
            <Array as="points">
              <mxPoint x="-378" y="-370" />
              <mxPoint x="-302" y="-345" />
            </Array>
          </mxGeometry>
        </mxCell>
        <mxCell id="CG-r57F87EL2DfwsQt_h-7" value="Entry" style="rounded=1;" vertex="1" parent="WIyWlLk6GJQsqaUBKTNV-1">
          <mxGeometry x="-110" y="-360" width="80" height="30" as="geometry" />
        </mxCell>
        <mxCell id="CG-r57F87EL2DfwsQt_h-8" value="" style="curved=1;noEdgeStyle=1;orthogonal=1;" edge="1" source="CG-r57F87EL2DfwsQt_h-5" target="CG-r57F87EL2DfwsQt_h-7" parent="WIyWlLk6GJQsqaUBKTNV-1">
          <mxGeometry relative="1" as="geometry">
            <Array as="points">
              <mxPoint x="-198" y="-345" />
              <mxPoint x="-122" y="-345" />
            </Array>
          </mxGeometry>
        </mxCell>
        <mxCell id="CG-r57F87EL2DfwsQt_h-9" value="Entry" style="rounded=1;" vertex="1" parent="WIyWlLk6GJQsqaUBKTNV-1">
          <mxGeometry x="-110" y="-420" width="80" height="30" as="geometry" />
        </mxCell>
        <mxCell id="CG-r57F87EL2DfwsQt_h-10" value="" style="curved=1;noEdgeStyle=1;orthogonal=1;" edge="1" source="CG-r57F87EL2DfwsQt_h-3" target="CG-r57F87EL2DfwsQt_h-9" parent="WIyWlLk6GJQsqaUBKTNV-1">
          <mxGeometry relative="1" as="geometry">
            <Array as="points">
              <mxPoint x="-198" y="-405" />
              <mxPoint x="-122" y="-405" />
            </Array>
          </mxGeometry>
        </mxCell>
        <mxCell id="CG-r57F87EL2DfwsQt_h-11" value="Entry" style="rounded=1;" vertex="1" parent="WIyWlLk6GJQsqaUBKTNV-1">
          <mxGeometry x="70" y="-420" width="80" height="30" as="geometry" />
        </mxCell>
        <mxCell id="CG-r57F87EL2DfwsQt_h-12" value="" style="curved=1;noEdgeStyle=1;orthogonal=1;" edge="1" source="CG-r57F87EL2DfwsQt_h-9" target="CG-r57F87EL2DfwsQt_h-11" parent="WIyWlLk6GJQsqaUBKTNV-1">
          <mxGeometry relative="1" as="geometry">
            <Array as="points">
              <mxPoint x="-18" y="-405" />
              <mxPoint x="58" y="-405" />
            </Array>
          </mxGeometry>
        </mxCell>
        <mxCell id="CG-r57F87EL2DfwsQt_h-13" value="Entry" style="rounded=1;" vertex="1" parent="WIyWlLk6GJQsqaUBKTNV-1">
          <mxGeometry x="70" y="-360" width="80" height="30" as="geometry" />
        </mxCell>
        <mxCell id="CG-r57F87EL2DfwsQt_h-14" value="" style="curved=1;noEdgeStyle=1;orthogonal=1;" edge="1" source="CG-r57F87EL2DfwsQt_h-7" target="CG-r57F87EL2DfwsQt_h-13" parent="WIyWlLk6GJQsqaUBKTNV-1">
          <mxGeometry relative="1" as="geometry">
            <Array as="points">
              <mxPoint x="-18" y="-345" />
              <mxPoint x="58" y="-345" />
            </Array>
          </mxGeometry>
        </mxCell>
        <mxCell id="CG-r57F87EL2DfwsQt_h-15" value="Entry" style="rounded=1;" vertex="1" parent="WIyWlLk6GJQsqaUBKTNV-1">
          <mxGeometry x="250" y="-366.8115234375" width="80" height="30" as="geometry" />
        </mxCell>
        <mxCell id="CG-r57F87EL2DfwsQt_h-16" value="" style="curved=1;noEdgeStyle=1;orthogonal=1;" edge="1" source="CG-r57F87EL2DfwsQt_h-13" target="CG-r57F87EL2DfwsQt_h-15" parent="WIyWlLk6GJQsqaUBKTNV-1">
          <mxGeometry relative="1" as="geometry">
            <Array as="points">
              <mxPoint x="162" y="-345" />
              <mxPoint x="238" y="-351.8115234375" />
            </Array>
          </mxGeometry>
        </mxCell>
        <mxCell id="CG-r57F87EL2DfwsQt_h-17" value="Entry" style="rounded=1;" vertex="1" parent="WIyWlLk6GJQsqaUBKTNV-1">
          <mxGeometry x="430" y="-372.12158203125" width="80" height="30" as="geometry" />
        </mxCell>
        <mxCell id="CG-r57F87EL2DfwsQt_h-18" value="" style="curved=1;noEdgeStyle=1;orthogonal=1;" edge="1" source="CG-r57F87EL2DfwsQt_h-15" target="CG-r57F87EL2DfwsQt_h-17" parent="WIyWlLk6GJQsqaUBKTNV-1">
          <mxGeometry relative="1" as="geometry">
            <Array as="points">
              <mxPoint x="342" y="-351.8115234375" />
              <mxPoint x="418" y="-357.12158203125" />
            </Array>
          </mxGeometry>
        </mxCell>
        <mxCell id="CG-r57F87EL2DfwsQt_h-19" value="Entry" style="rounded=1;" vertex="1" parent="WIyWlLk6GJQsqaUBKTNV-1">
          <mxGeometry x="610" y="-375.728759765625" width="80" height="30" as="geometry" />
        </mxCell>
        <mxCell id="CG-r57F87EL2DfwsQt_h-20" value="" style="curved=1;noEdgeStyle=1;orthogonal=1;" edge="1" source="CG-r57F87EL2DfwsQt_h-17" target="CG-r57F87EL2DfwsQt_h-19" parent="WIyWlLk6GJQsqaUBKTNV-1">
          <mxGeometry relative="1" as="geometry">
            <Array as="points">
              <mxPoint x="522" y="-357.12158203125" />
              <mxPoint x="598" y="-360.728759765625" />
            </Array>
          </mxGeometry>
        </mxCell>
        <mxCell id="CG-r57F87EL2DfwsQt_h-21" value="Entry" style="rounded=1;" vertex="1" parent="WIyWlLk6GJQsqaUBKTNV-1">
          <mxGeometry x="790" y="-377.5323486328125" width="80" height="30" as="geometry" />
        </mxCell>
        <mxCell id="CG-r57F87EL2DfwsQt_h-22" value="" style="curved=1;noEdgeStyle=1;orthogonal=1;" edge="1" source="CG-r57F87EL2DfwsQt_h-19" target="CG-r57F87EL2DfwsQt_h-21" parent="WIyWlLk6GJQsqaUBKTNV-1">
          <mxGeometry relative="1" as="geometry">
            <Array as="points">
              <mxPoint x="702" y="-360.728759765625" />
              <mxPoint x="778" y="-362.5323486328125" />
            </Array>
          </mxGeometry>
        </mxCell>
        <mxCell id="CG-r57F87EL2DfwsQt_h-23" value="Entry" style="rounded=1;" vertex="1" parent="WIyWlLk6GJQsqaUBKTNV-1">
          <mxGeometry x="970" y="-377.5323486328125" width="80" height="30" as="geometry" />
        </mxCell>
        <mxCell id="CG-r57F87EL2DfwsQt_h-24" value="" style="curved=1;noEdgeStyle=1;orthogonal=1;" edge="1" source="CG-r57F87EL2DfwsQt_h-21" target="CG-r57F87EL2DfwsQt_h-23" parent="WIyWlLk6GJQsqaUBKTNV-1">
          <mxGeometry relative="1" as="geometry">
            <Array as="points">
              <mxPoint x="882" y="-362.5323486328125" />
              <mxPoint x="958" y="-362.5323486328125" />
            </Array>
          </mxGeometry>
        </mxCell>
        <mxCell id="CG-r57F87EL2DfwsQt_h-25" value="Text" style="text;html=1;align=center;verticalAlign=middle;resizable=0;points=[];autosize=1;rotation=0;" vertex="1" parent="WIyWlLk6GJQsqaUBKTNV-1">
          <mxGeometry x="773.71435546875" y="-1828.4286804199219" width="40" height="20" as="geometry" />
        </mxCell>
      </root>
    </mxGraphModel>
  </diagram>
</mxfile>
